<svg width="169" height="36" viewBox="0 0 169 36" fill="none" xmlns="http://www.w3.org/2000/svg">
<path fill-rule="evenodd" clip-rule="evenodd" d="M29.5228 10.4791C32.1886 10.4791 34.3497 8.31801 34.3497 5.6522C34.3497 2.98638 32.1886 0.825317 29.5228 0.825317C26.857 0.825317 24.6959 2.98638 24.6959 5.6522C24.6959 8.31801 26.857 10.4791 29.5228 10.4791Z" fill="black"/>
<path fill-rule="evenodd" clip-rule="evenodd" d="M29.5226 22.602C32.1884 22.602 34.3494 20.441 34.3494 17.7753C34.3494 15.1096 32.1884 12.9486 29.5226 12.9486C26.8567 12.9486 24.6957 15.1096 24.6957 17.7753C24.6957 20.441 26.8567 22.602 29.5226 22.602Z" fill="black"/>
<path fill-rule="evenodd" clip-rule="evenodd" d="M29.5226 35.1746C32.1884 35.1746 34.3494 33.0135 34.3494 30.3477C34.3494 27.6819 32.1884 25.5208 29.5226 25.5208C26.8567 25.5208 24.6957 27.6819 24.6957 30.3477C24.6957 33.0135 26.8567 35.1746 29.5226 35.1746Z" fill="black"/>
<path fill-rule="evenodd" clip-rule="evenodd" d="M16.9506 22.602C19.6164 22.602 21.7774 20.441 21.7774 17.7753C21.7774 15.1096 19.6164 12.9486 16.9506 12.9486C14.2849 12.9486 12.1239 15.1096 12.1239 17.7753C12.1239 20.441 14.2849 22.602 16.9506 22.602Z" fill="black"/>
<path fill-rule="evenodd" clip-rule="evenodd" d="M16.9504 35.1746C19.6161 35.1746 21.7771 33.0135 21.7771 30.3477C21.7771 27.6819 19.6161 25.5208 16.9504 25.5208C14.2847 25.5208 12.1237 27.6819 12.1237 30.3477C12.1237 33.0135 14.2847 35.1746 16.9504 35.1746Z" fill="black"/>
<path fill-rule="evenodd" clip-rule="evenodd" d="M4.82688 35.1746C7.49269 35.1746 9.65376 33.0135 9.65376 30.3477C9.65376 27.6819 7.49269 25.5208 4.82688 25.5208C2.16107 25.5208 0 27.6819 0 30.3477C0 33.0135 2.16107 35.1746 4.82688 35.1746Z" fill="black"/>
<path d="M39.0304 26V9.2H45.7744C47.5184 9.2 48.8464 9.608 49.7584 10.424C50.6864 11.224 51.1504 12.256 51.1504 13.52C51.1504 14.576 50.8624 15.424 50.2864 16.064C49.7264 16.688 49.0384 17.112 48.2224 17.336C49.1824 17.528 49.9744 18.008 50.5984 18.776C51.2224 19.528 51.5344 20.408 51.5344 21.416C51.5344 22.744 51.0544 23.84 50.0944 24.704C49.1344 25.568 47.7744 26 46.0144 26H39.0304ZM42.1024 16.256H45.3184C46.1824 16.256 46.8464 16.056 47.3104 15.656C47.7744 15.256 48.0064 14.688 48.0064 13.952C48.0064 13.248 47.7744 12.696 47.3104 12.296C46.8624 11.88 46.1824 11.672 45.2704 11.672H42.1024V16.256ZM42.1024 23.504H45.5344C46.4464 23.504 47.1504 23.296 47.6464 22.88C48.1584 22.448 48.4144 21.848 48.4144 21.08C48.4144 20.296 48.1504 19.68 47.6224 19.232C47.0944 18.784 46.3824 18.56 45.4864 18.56H42.1024V23.504ZM59.8831 26.288C58.6831 26.288 57.6191 26.032 56.6911 25.52C55.7631 25.008 55.0351 24.288 54.5071 23.36C53.9791 22.432 53.7151 21.36 53.7151 20.144C53.7151 18.912 53.9711 17.816 54.4831 16.856C55.0111 15.896 55.7311 15.152 56.6431 14.624C57.5711 14.08 58.6591 13.808 59.9071 13.808C61.0751 13.808 62.1071 14.064 63.0031 14.576C63.8991 15.088 64.5951 15.792 65.0911 16.688C65.6031 17.568 65.8591 18.552 65.8591 19.64C65.8591 19.816 65.8511 20 65.8351 20.192C65.8351 20.384 65.8271 20.584 65.8111 20.792H56.7631C56.8271 21.72 57.1471 22.448 57.7231 22.976C58.3151 23.504 59.0271 23.768 59.8591 23.768C60.4831 23.768 61.0031 23.632 61.4191 23.36C61.8511 23.072 62.1711 22.704 62.3791 22.256H65.4991C65.2751 23.008 64.8991 23.696 64.3711 24.32C63.8591 24.928 63.2191 25.408 62.4511 25.76C61.6991 26.112 60.8431 26.288 59.8831 26.288ZM59.9071 16.304C59.1551 16.304 58.4911 16.52 57.9151 16.952C57.3391 17.368 56.9711 18.008 56.8111 18.872H62.7391C62.6911 18.088 62.4031 17.464 61.8751 17C61.3471 16.536 60.6911 16.304 59.9071 16.304ZM72.4268 26V11.672H67.5308V9.2H80.4188V11.672H75.4988V26H72.4268ZM86.1783 26.288C85.0263 26.288 83.9863 26.024 83.0583 25.496C82.1463 24.968 81.4183 24.24 80.8743 23.312C80.3463 22.368 80.0823 21.28 80.0823 20.048C80.0823 18.816 80.3543 17.736 80.8983 16.808C81.4423 15.864 82.1703 15.128 83.0823 14.6C84.0103 14.072 85.0503 13.808 86.2023 13.808C87.3383 13.808 88.3623 14.072 89.2743 14.6C90.2023 15.128 90.9303 15.864 91.4583 16.808C92.0023 17.736 92.2743 18.816 92.2743 20.048C92.2743 21.28 92.0023 22.368 91.4583 23.312C90.9303 24.24 90.2023 24.968 89.2743 25.496C88.3463 26.024 87.3143 26.288 86.1783 26.288ZM86.1783 23.624C86.9783 23.624 87.6743 23.328 88.2663 22.736C88.8583 22.128 89.1543 21.232 89.1543 20.048C89.1543 18.864 88.8583 17.976 88.2663 17.384C87.6743 16.776 86.9863 16.472 86.2023 16.472C85.3863 16.472 84.6823 16.776 84.0903 17.384C83.5143 17.976 83.2263 18.864 83.2263 20.048C83.2263 21.232 83.5143 22.128 84.0903 22.736C84.6823 23.328 85.3783 23.624 86.1783 23.624ZM99.3109 22.448C98.7349 22.448 98.1989 22.384 97.7029 22.256L96.8149 23.144C97.0869 23.288 97.4549 23.408 97.9189 23.504C98.3829 23.6 99.1349 23.696 100.175 23.792C101.759 23.936 102.911 24.312 103.631 24.92C104.351 25.528 104.711 26.368 104.711 27.44C104.711 28.144 104.519 28.808 104.135 29.432C103.751 30.072 103.159 30.584 102.359 30.968C101.559 31.368 100.535 31.568 99.2869 31.568C97.5909 31.568 96.2229 31.248 95.1829 30.608C94.1429 29.984 93.6229 29.04 93.6229 27.776C93.6229 26.704 94.1429 25.776 95.1829 24.992C94.8629 24.848 94.5829 24.696 94.3429 24.536C94.1189 24.376 93.9189 24.208 93.7429 24.032V23.48L95.8309 21.272C94.9029 20.456 94.4389 19.408 94.4389 18.128C94.4389 17.328 94.6309 16.6 95.0149 15.944C95.4149 15.288 95.9749 14.768 96.6949 14.384C97.4149 14 98.2869 13.808 99.3109 13.808C99.9829 13.808 100.607 13.904 101.183 14.096H105.695V15.968L103.655 16.112C103.975 16.72 104.135 17.392 104.135 18.128C104.135 18.928 103.943 19.656 103.559 20.312C103.175 20.968 102.615 21.488 101.879 21.872C101.159 22.256 100.303 22.448 99.3109 22.448ZM99.3109 20.096C99.9349 20.096 100.447 19.928 100.847 19.592C101.263 19.256 101.471 18.776 101.471 18.152C101.471 17.528 101.263 17.048 100.847 16.712C100.447 16.376 99.9349 16.208 99.3109 16.208C98.6549 16.208 98.1269 16.376 97.7269 16.712C97.3269 17.048 97.1269 17.528 97.1269 18.152C97.1269 18.776 97.3269 19.256 97.7269 19.592C98.1269 19.928 98.6549 20.096 99.3109 20.096ZM96.4309 27.464C96.4309 28.056 96.7029 28.496 97.2469 28.784C97.8069 29.088 98.4869 29.24 99.2869 29.24C100.055 29.24 100.679 29.08 101.159 28.76C101.639 28.456 101.879 28.04 101.879 27.512C101.879 27.08 101.719 26.72 101.399 26.432C101.095 26.144 100.479 25.968 99.5509 25.904C98.8949 25.856 98.2869 25.784 97.7269 25.688C97.2629 25.944 96.9269 26.224 96.7189 26.528C96.5269 26.832 96.4309 27.144 96.4309 27.464ZM113.25 26.288C112.05 26.288 110.986 26.032 110.058 25.52C109.13 25.008 108.402 24.288 107.874 23.36C107.346 22.432 107.082 21.36 107.082 20.144C107.082 18.912 107.338 17.816 107.85 16.856C108.378 15.896 109.098 15.152 110.01 14.624C110.938 14.08 112.026 13.808 113.274 13.808C114.442 13.808 115.474 14.064 116.37 14.576C117.266 15.088 117.962 15.792 118.458 16.688C118.97 17.568 119.226 18.552 119.226 19.64C119.226 19.816 119.218 20 119.202 20.192C119.202 20.384 119.194 20.584 119.178 20.792H110.13C110.194 21.72 110.514 22.448 111.09 22.976C111.682 23.504 112.394 23.768 113.226 23.768C113.85 23.768 114.37 23.632 114.786 23.36C115.218 23.072 115.538 22.704 115.746 22.256H118.866C118.642 23.008 118.266 23.696 117.738 24.32C117.226 24.928 116.586 25.408 115.818 25.76C115.066 26.112 114.21 26.288 113.25 26.288ZM113.274 16.304C112.522 16.304 111.858 16.52 111.282 16.952C110.706 17.368 110.338 18.008 110.178 18.872H116.106C116.058 18.088 115.77 17.464 115.242 17C114.714 16.536 114.058 16.304 113.274 16.304ZM126.903 26C125.655 26 124.655 25.696 123.903 25.088C123.151 24.48 122.775 23.4 122.775 21.848V16.664H120.735V14.096H122.775L123.135 10.904H125.847V14.096H129.063V16.664H125.847V21.872C125.847 22.448 125.967 22.848 126.207 23.072C126.463 23.28 126.895 23.384 127.503 23.384H128.991V26H126.903ZM131.701 26V8.72H134.773V15.92C135.173 15.264 135.709 14.752 136.381 14.384C137.069 14 137.853 13.808 138.733 13.808C140.205 13.808 141.341 14.272 142.141 15.2C142.957 16.128 143.365 17.488 143.365 19.28V26H140.317V19.568C140.317 18.544 140.109 17.76 139.693 17.216C139.293 16.672 138.653 16.4 137.773 16.4C136.909 16.4 136.189 16.704 135.613 17.312C135.053 17.92 134.773 18.768 134.773 19.856V26H131.701ZM152.086 26.288C150.886 26.288 149.822 26.032 148.894 25.52C147.966 25.008 147.238 24.288 146.71 23.36C146.182 22.432 145.918 21.36 145.918 20.144C145.918 18.912 146.174 17.816 146.686 16.856C147.214 15.896 147.934 15.152 148.846 14.624C149.774 14.08 150.862 13.808 152.11 13.808C153.278 13.808 154.31 14.064 155.206 14.576C156.102 15.088 156.798 15.792 157.294 16.688C157.806 17.568 158.062 18.552 158.062 19.64C158.062 19.816 158.054 20 158.038 20.192C158.038 20.384 158.03 20.584 158.014 20.792H148.966C149.03 21.72 149.35 22.448 149.926 22.976C150.518 23.504 151.23 23.768 152.062 23.768C152.686 23.768 153.206 23.632 153.622 23.36C154.054 23.072 154.374 22.704 154.582 22.256H157.702C157.478 23.008 157.102 23.696 156.574 24.32C156.062 24.928 155.422 25.408 154.654 25.76C153.902 26.112 153.046 26.288 152.086 26.288ZM152.11 16.304C151.358 16.304 150.694 16.52 150.118 16.952C149.542 17.368 149.174 18.008 149.014 18.872H154.942C154.894 18.088 154.606 17.464 154.078 17C153.55 16.536 152.894 16.304 152.11 16.304ZM160.646 26V14.096H163.382L163.67 16.328C164.102 15.56 164.686 14.952 165.422 14.504C166.174 14.04 167.054 13.808 168.062 13.808V17.048H167.198C166.526 17.048 165.926 17.152 165.398 17.36C164.87 17.568 164.454 17.928 164.15 18.44C163.862 18.952 163.718 19.664 163.718 20.576V26H160.646Z" fill="black"/>
</svg>
